<?xml version="1.0" standalone="no"?>
<!DOCTYPE svg PUBLIC "-//W3C//DTD SVG 20010904//EN"
 "http://www.w3.org/TR/2001/REC-SVG-20010904/DTD/svg10.dtd">
<svg version="1.0" xmlns="http://www.w3.org/2000/svg"
 width="512.000000pt" height="512.000000pt" viewBox="0 0 512.000000 512.000000"
 preserveAspectRatio="xMidYMid meet">
<metadata>
Created by potrace 1.11, written by Peter Selinger 2001-2013
</metadata>
<g transform="translate(0.000000,512.000000) scale(0.100000,-0.100000)"
fill="#000000" stroke="none">
<path d="M2554 4718 c-247 -170 -501 -400 -684 -618 -30 -36 -57 -67 -60 -70
-13 -12 -110 -142 -154 -205 -248 -357 -423 -776 -461 -1105 -13 -117 -15
-138 -15 -245 0 -213 24 -383 77 -544 26 -81 95 -224 118 -248 8 -8 15 -19 15
-24 0 -5 36 -45 79 -87 111 -110 245 -175 406 -198 109 -16 341 1 448 32 39
12 37 57 -7 159 -32 72 -92 285 -112 395 -32 181 -37 536 -9 685 2 11 4 35 4
54 1 40 15 33 16 -7 3 -70 17 -268 20 -272 1 -3 6 -32 9 -65 36 -328 137 -683
303 -1063 131 -301 269 -510 462 -702 222 -221 303 -270 410 -250 129 23 181
145 97 224 -18 17 -68 58 -112 91 -72 55 -261 235 -309 295 -60 74 -116 153
-158 220 -50 81 -112 219 -103 228 3 3 34 7 68 9 88 5 256 32 308 48 10 3 27
7 37 9 10 2 47 15 83 29 400 151 603 494 605 1022 0 177 -1 191 -35 317 -34
129 -94 265 -180 403 -43 71 -189 269 -232 315 -13 14 -44 50 -69 80 -26 30
-60 69 -75 85 -16 17 -76 84 -134 150 -58 66 -109 125 -115 131 -187 201 -343
476 -370 654 -14 95 -16 105 -27 117 -20 25 -55 13 -144 -49z"/>
</g>
</svg>
